{"title":"The Eagle (2011) PPVRIP IFLIX","uid":6306824,"size":1448559772,"categoryP":"video","categoryS":"movies","magnet":"?xt=urn:btih:b26502d6428506d6b80bc681654e04fe08c5e3b5&amp;dn=The+Eagle+%282011%29+PPVRIP+IFLIX&amp;tr=udp%3A%2F%2Ftracker.openbittorrent.com%3A80&amp;tr=udp%3A%2F%2Fopen.demonii.com%3A1337&amp;tr=udp%3A%2F%2Ftracker.coppersurfer.tk%3A6969&amp;tr=udp%3A%2F%2Fexodus.desync.com%3A6969","seeders":3,"leechers":0,"uploader":"IwannaFan2","files":-1,"time":1302365764,"description":"The Eagle (2011) PPVRIP IFLIX &lt;a href=&quot;\nhttp://www.imdb.com/title/tt1034389/&quot; rel=&quot;nofollow&quot; target=&quot;_NEW&quot;&gt;\nhttp://www.imdb.com/title/tt1034389/&lt;/a&gt;\n\n[IMG]http://img594.imageshack.us/img594/5779/theeagle2011r1customfro.jpg[/IMG]\nIn Roman-ruled Britain, a young Roman soldier endeavors to honor his father's memory by finding his\nlost legion's golden emblem.\n\n[IMG]http://img638.imageshack.us/img638/5070/eagle1j.png[/IMG]\n[IMG]http://img28.imageshack.us/img28/9278/eagle2b.png[/IMG]\n[IMG]http://img864.imageshack.us/img864/1356/eagle3.png[/IMG]\n\nSubtitles: English\nFormat                           : AVI\nFormat/Info                      : Audio Video Interleave\nFormat profile                   : OpenDML\nFile size                        : 1.34 GiB\nDuration                         : 1h 53mn\nOverall bit rate                 : 1 695 Kbps\n\nVideo\nID                               : 0\nFormat                           : MPEG-4 Visual\nFormat profile                   : Simple@L3\nFormat settings, BVOP            : No\nFormat settings, QPel            : No\nFormat settings, GMC             : No warppoints\nFormat settings, Matrix          : Default (H.263)\nCodec ID                         : XVID\nCodec ID/Hint                    : XviD\nDuration                         : 1h 53mn\nBit rate                         : 1 549 Kbps\nWidth                            : 720 pixels\nHeight                           : 480 pixels\nDisplay aspect ratio             : 1.500\nFrame rate                       : 29.970 fps\nOriginal frame rate              : 29.000 fps\nStandard                         : NTSC\nResolution                       : 24 bits\nColorimetry                      : 4:2:0\nScan type                        : Progressive\nBits/(Pixel*Frame)               : 0.150\nStream size                      : 1.23 GiB (91%)\nWriting library                  : XviD 1.2.1 (UTC 2008-12-04)\n\nAudio\nID                               : 1\nFormat                           : MPEG Audio\nFormat version                   : Version 1\nFormat profile                   : Layer 3\nFormat_Settings_Mode             : Joint stereo / MS Stereo\nCodec ID                         : 55\nCodec ID/Hint                    : MP3\nDuration                         : 1h 53mn\nBit rate mode                    : Constant\nBit rate                         : 128 Kbps\nChannel(s)                       : 2 channels\nSampling rate                    : 44.1 KHz\nResolution                       : 16 bits\nStream size                      : 104 MiB (8%)\nAlignment                        : Aligned on interleaves\nInterleave, duration             : 26 ms (0.78 video frame)\nWriting library                  : LAME3.98.2\n\n\n\nRelease notes...\n\nAnother quality release from IFLIX\nMore to come very soon!\n\nVideo source: Ours\nAudio source: Ours\n\nGreetings to all other groups out there. You all do awesome work and we greatly appreciate it.\nIFLIX :-)\n","torrent":{"xt":"urn:btih:b26502d6428506d6b80bc681654e04fe08c5e3b5","amp;dn":"The+Eagle+%282011%29+PPVRIP+IFLIX","amp;tr":["udp%3A%2F%2Ftracker.openbittorrent.com%3A80","udp%3A%2F%2Fopen.demonii.com%3A1337","udp%3A%2F%2Ftracker.coppersurfer.tk%3A6969","udp%3A%2F%2Fexodus.desync.com%3A6969"],"infoHash":"b26502d6428506d6b80bc681654e04fe08c5e3b5","infoHashBuffer":{"type":"Buffer","data":[178,101,2,214,66,133,6,214,184,11,198,129,101,78,4,254,8,197,227,181]},"announce":[],"urlList":[]}}